<svg xmlns="http://www.w3.org/2000/svg" xmlns:xlink="http://www.w3.org/1999/xlink" id="Layer_1" x="0px" y="0px" viewBox="0 0 494.7 220.36" style="enable-background:new 0 0 494.7 220.36;" xml:space="preserve"><style type="text/css">	.st0{fill:#EDEDED;}	.st1{fill:#213A7B;}	.st2{fill:#57AFE0;}	.st3{fill:#3AAAE1;}</style><g>	<g>		<g id="XMLID_00000130618392670901990800000007920239551717446068_">			<g id="XMLID_00000041984033608393948620000003532628123286083488_">				<path id="XMLID_00000013881918438951033580000008712917514204031885_" class="st0" d="M86.07,173.91l-11.28,46.01l1.81,0.44     l1.26-5.16l3.05,0.75l4.2-17.14l22.2,7.76c1.94,0.68,4.04-0.46,4.52-2.45v0c0.49-1.99-0.85-3.97-2.88-4.27l-23.27-3.38     l3.97-16.21l-3.05-0.75l1.26-5.16L86.07,173.91z"></path>				<path id="XMLID_00000031886099286491452930000004928004472054524827_" class="st0" d="M195.81,46.46     c-4.13-0.85-7.2-4.33-7.51-8.54l-0.2-2.62l-0.53,2.58c-0.85,4.13-4.33,7.2-8.54,7.51l-2.62,0.2l2.58,0.53     c4.13,0.85,7.2,4.33,7.51,8.54l0.2,2.62l0.53-2.58c0.85-4.13,4.33-7.2,8.54-7.51l2.62-0.2L195.81,46.46z"></path>				<path id="XMLID_00000109748418579435091730000007367869521987674289_" class="st0" d="M181.16,41.03     c-1.3-1.46-2.64-2.89-4.04-4.29C137.38-3,72.95-3,33.21,36.74s-39.74,104.17,0,143.91c12.31,12.31,26.99,20.8,42.57,25.49     l0.94-3.83c-40.49-10.78-51.86-49.42-51.86-49.42c14.47,28.07,35.2,39.23,49.2,43.67c-39.94-17.85-49.51-58.57-49.51-58.57     c15.03,33.62,38.31,48.25,54.55,54.59l0.86-3.54c-8.11-4.18-15.71-9.66-22.51-16.45c-35.28-35.28-35.28-92.47,0-127.75     C91.41,10.86,145.68,9.6,181.16,41.03z M26.84,78.63c-2.25,0.17-4.12,1.81-4.57,4.02l-0.28,1.38l-0.11-1.4     c-0.17-2.25-1.81-4.12-4.02-4.57l-1.38-0.28l1.4-0.11c2.25-0.17,4.12-1.81,4.57-4.02l0.28-1.38l0.11,1.4     c0.17,2.25,1.81,4.12,4.02,4.57l1.38,0.28L26.84,78.63z M48.15,41.45c-1.23,0.09-2.26,0.99-2.5,2.2l-0.15,0.76l-0.06-0.77     c-0.09-1.23-0.99-2.26-2.2-2.5l-0.76-0.16l0.77-0.06c1.23-0.09,2.26-0.99,2.5-2.2l0.16-0.76l0.06,0.77     c0.09,1.23,0.99,2.26,2.2,2.5l0.76,0.16L48.15,41.45z"></path>				<path id="XMLID_00000020384074903151034610000011800112429745446018_" class="st0" d="M146.3,34.26     c-1.68-0.77-2.64-2.56-2.36-4.39l0.18-1.14l-0.48,1.05c-0.77,1.68-2.56,2.64-4.39,2.36l-1.14-0.18l1.05,0.48     c1.68,0.77,2.64,2.56,2.36,4.39l-0.18,1.14l0.48-1.05c0.77-1.68,2.56-2.64,4.39-2.36l1.14,0.18L146.3,34.26z"></path>				<path id="XMLID_00000093142445842994099690000004254706060282625723_" class="st0" d="M167.78,56.02     c-2.11-0.97-3.32-3.21-2.96-5.5l0.22-1.43l-0.6,1.31c-0.97,2.11-3.21,3.32-5.5,2.96l-1.43-0.22l1.31,0.6     c2.11,0.97,3.32,3.21,2.96,5.5l-0.22,1.43l0.6-1.31c0.97-2.11,3.21-3.32,5.5-2.96l1.43,0.22L167.78,56.02z"></path>				<path id="XMLID_00000016065067319086989050000016052405086724310973_" class="st0" d="M160.44,8.95     c-1.38-0.63-2.17-2.11-1.94-3.61l0.14-0.94l-0.39,0.86c-0.63,1.38-2.11,2.17-3.61,1.94l-0.94-0.14l0.86,0.39     c1.38,0.63,2.17,2.11,1.94,3.61L156.37,12l0.39-0.86c0.63-1.38,2.11-2.17,3.61-1.94l0.94,0.14L160.44,8.95z"></path>			</g>		</g>		<g>			<path class="st0" d="M106.04,86.81h25.8l-3.46,15.32h-25.89l-4.16,18.09H80.41l13.33-58.01h47.1l-3.46,15.32h-29.26L106.04,86.81    z"></path>			<path class="st0" d="M179.03,81.62c4.16,4.33,5.71,9.9,4.67,16.71c-1.1,6.81-4.36,12.38-9.78,16.71    c-5.43,4.33-11.57,6.49-18.44,6.49c-6.93,0-12.48-2.18-16.67-6.54c-4.18-4.36-5.73-9.91-4.63-16.67    c1.04-6.81,4.29-12.38,9.74-16.71c5.45-4.33,11.65-6.49,18.57-6.49C169.36,75.13,174.87,77.29,179.03,81.62z M163.66,104.52    c1.82-1.7,2.93-3.77,3.33-6.19c0.4-2.48-0.03-4.57-1.3-6.28c-1.27-1.7-3.06-2.55-5.37-2.55c-2.25,0-4.27,0.85-6.06,2.55    c-1.79,1.7-2.91,3.79-3.38,6.28c-0.4,2.42,0.03,4.49,1.3,6.19c1.27,1.7,3.06,2.55,5.37,2.55    C159.81,107.07,161.84,106.22,163.66,104.52z"></path>			<path class="st0" d="M228.9,76.08l-4.85,18.18h-2.6c-4.56,0-8.28,0.95-11.17,2.86c-2.89,1.9-4.88,5.25-5.97,10.04l-3.03,13.07    h-17.4l10.13-43.9h17.4l-1.99,8.48c4.5-6,9.96-9,16.36-9C226.82,75.82,227.86,75.91,228.9,76.08z"></path>			<path class="st0" d="M269.81,82.36c3.67,4.88,4.81,11.59,3.42,20.13h-30.3c0.46,3.98,2.57,5.97,6.32,5.97    c3.41,0,5.92-1.33,7.53-3.98l15.06,3.03c-2.42,4.62-5.73,8.11-9.91,10.48c-4.18,2.37-8.82,3.55-13.9,3.55    c-6.46,0-11.7-1.85-15.71-5.54c-4.01-3.69-6.02-8.66-6.02-14.89c0-7.39,2.67-13.58,8.01-18.57s11.76-7.49,19.26-7.49    C260.73,75.04,266.14,77.48,269.81,82.36z M258.08,93.39c-0.46-3.41-2.4-5.11-5.8-5.11c-3.12,0-5.63,1.7-7.53,5.11H258.08z"></path>			<path class="st0" d="M304.49,75.21l-0.26,1.13h10.13l-3.12,13.51h-10.13l-7.01,30.39h-17.4l7.01-30.39h-5.63l3.12-13.51h5.54    l0.61-2.51c1.27-5.19,3.9-9.36,7.88-12.51c3.98-3.15,8.72-4.72,14.2-4.72c3.64,0,6.64,0.55,9,1.65l-3.2,13.77    c-1.39-0.63-3.06-0.95-5.02-0.95C307.08,71.06,305.18,72.44,304.49,75.21z"></path>			<path class="st0" d="M352.71,76.08l-4.85,18.18h-2.6c-4.56,0-8.28,0.95-11.17,2.86c-2.89,1.9-4.88,5.25-5.97,10.04l-3.03,13.07    h-17.4l10.13-43.9h17.4l-1.99,8.48c4.5-6,9.96-9,16.36-9C350.63,75.82,351.67,75.91,352.71,76.08z"></path>			<path class="st0" d="M394.96,81.62c4.16,4.33,5.71,9.9,4.68,16.71c-1.1,6.81-4.36,12.38-9.78,16.71    c-5.43,4.33-11.57,6.49-18.44,6.49c-6.93,0-12.48-2.18-16.67-6.54c-4.18-4.36-5.73-9.91-4.63-16.67    c1.04-6.81,4.29-12.38,9.74-16.71c5.45-4.33,11.65-6.49,18.57-6.49C385.29,75.13,390.81,77.29,394.96,81.62z M379.59,104.52    c1.82-1.7,2.93-3.77,3.33-6.19c0.4-2.48-0.03-4.57-1.3-6.28c-1.27-1.7-3.06-2.55-5.37-2.55c-2.25,0-4.27,0.85-6.06,2.55    c-1.79,1.7-2.91,3.79-3.38,6.28c-0.4,2.42,0.03,4.49,1.3,6.19c1.27,1.7,3.06,2.55,5.37,2.55    C375.74,107.07,377.78,106.22,379.59,104.52z"></path>			<path class="st0" d="M450.72,80.15c2.54,3.41,3.17,7.82,1.9,13.25l-6.15,26.84h-17.4l5.37-23.64c0.4-1.85,0.23-3.33-0.52-4.46    s-1.96-1.69-3.64-1.69c-1.9,0-3.58,0.72-5.02,2.16c-1.44,1.44-2.45,3.41-3.03,5.89l-5.02,21.73h-17.4l10.13-43.9h17.4l-0.87,3.72    c3.69-3.35,7.79-5.02,12.29-5.02C444.2,75.04,448.18,76.74,450.72,80.15z"></path>			<path class="st0" d="M477.91,101.88c-0.35,1.5-0.26,2.67,0.26,3.51s1.41,1.26,2.68,1.26c1.67,0,3.92-0.52,6.75-1.56l0.87,13.33    c-3.81,2.08-8.74,3.12-14.81,3.12c-5.31,0-9.23-1.59-11.77-4.76c-2.54-3.17-3.17-7.42-1.9-12.73l3.29-14.2h-5.8l3.12-13.51h5.8    l2.86-12.38h17.4l-2.86,12.38h10.91l-3.12,13.51h-10.91L477.91,101.88z"></path>		</g>		<g>			<path class="st0" d="M99.15,161.78l-0.9-5.15H87.58l-3.31,5.15h-5.58l16.03-24.14h4.58l4.86,24.14H99.15z M95.94,143.59    l-5.51,8.61h7.03L95.94,143.59z"></path>			<path class="st0" d="M136.32,161.78h-17.37l5.55-24.14h4.9l-4.54,19.71h12.47L136.32,161.78z"></path>			<path class="st0" d="M169.57,161.78H152.2l5.55-24.14h4.9l-4.54,19.71h12.47L169.57,161.78z"></path>			<path class="st0" d="M230.01,139.44c1.97,1.56,3.06,3.64,3.28,6.23l-5.04,0.97c-0.22-1.54-0.8-2.76-1.77-3.66    c-0.96-0.9-2.29-1.35-4-1.35c-2.52,0-4.73,0.9-6.61,2.7c-1.89,1.8-2.83,3.99-2.83,6.56c0,1.99,0.6,3.64,1.8,4.94    c1.2,1.3,2.81,1.95,4.83,1.95c1.75,0,3.3-0.45,4.63-1.35c1.33-0.9,2.28-2.07,2.83-3.51l4.5,1.4c-0.86,2.45-2.33,4.4-4.39,5.84    s-4.64,2.16-7.71,2.16c-3.46,0-6.23-1.03-8.32-3.08c-2.09-2.05-3.13-4.73-3.13-8.02c0-3.87,1.39-7.19,4.18-9.96    c2.79-2.77,6.22-4.16,10.3-4.16C225.56,137.1,228.05,137.88,230.01,139.44z"></path>			<path class="st0" d="M263.66,161.78h-17.36l5.55-24.14h4.9l-4.54,19.71h12.46L263.66,161.78z"></path>			<path class="st0" d="M287.72,147.51h12.32l-1.01,4.36h-12.32l-1.26,5.48h13.44l-1.01,4.43h-18.34l5.55-24.14h18.27l-1.01,4.43    h-13.37L287.72,147.51z"></path>			<path class="st0" d="M332.93,161.78l-0.9-5.15h-10.66l-3.31,5.15h-5.58l16.03-24.14h4.58l4.86,24.14H332.93z M329.72,143.59    l-5.51,8.61h7.03L329.72,143.59z"></path>			<path class="st0" d="M375.04,161.78h-4.11l-9.51-16l-3.71,16h-4.9l5.55-24.14h4.11l9.44,16.32l3.78-16.32h4.9L375.04,161.78z"></path>			<path class="st0" d="M392.43,161.78l5.55-24.14h4.9l-5.55,24.14H392.43z"></path>			<path class="st0" d="M436.96,161.78h-4.11l-9.51-16l-3.71,16h-4.9l5.55-24.14h4.11l9.44,16.32l3.78-16.32h4.9L436.96,161.78z"></path>			<path class="st0" d="M481.41,147.69c-0.05,0.91-0.12,1.61-0.22,2.09c-0.72,3.91-2.33,6.98-4.83,9.2    c-2.5,2.22-5.58,3.33-9.26,3.33c-3.36,0-6.06-1-8.09-3.01c-2.03-2.01-3.04-4.65-3.04-7.94c0-3.91,1.45-7.27,4.36-10.07    c2.91-2.8,6.44-4.2,10.59-4.2c2.52,0,4.77,0.64,6.74,1.91c1.97,1.27,3.17,3.06,3.6,5.37l-4.9,1.04    c-0.82-2.47-2.74-3.71-5.76-3.71c-2.64,0-4.91,0.89-6.79,2.67c-1.88,1.78-2.83,3.95-2.83,6.52c0,2.02,0.61,3.66,1.84,4.94    c1.22,1.27,2.83,1.91,4.83,1.91c1.8,0,3.41-0.52,4.83-1.55s2.41-2.38,2.99-4.04h-7.96l1.04-4.47H481.41z"></path>		</g>	</g>	<g>		<g id="XMLID_00000075151514290796036860000002392386452892027819_">			<g id="XMLID_00000065038562002046405560000000964059961581117850_">				<path id="XMLID_00000106119901651154953740000014607191269606756234_" class="st1" d="M82.66,169.5l-11.28,46.01l1.81,0.44     l1.26-5.16l3.05,0.75l4.2-17.14l22.2,7.76c1.94,0.68,4.04-0.46,4.52-2.45v0c0.49-1.99-0.85-3.97-2.88-4.27l-23.27-3.38     l3.97-16.21l-3.05-0.75l1.26-5.16L82.66,169.5z"></path>				<path id="XMLID_00000021092010457848997600000011862835728664346555_" class="st2" d="M192.41,42.06     c-4.13-0.85-7.2-4.33-7.51-8.54l-0.2-2.62l-0.53,2.58c-0.85,4.13-4.33,7.2-8.54,7.51l-2.62,0.2l2.58,0.53     c4.13,0.85,7.2,4.33,7.51,8.54l0.2,2.62l0.53-2.58c0.85-4.13,4.33-7.2,8.54-7.51l2.62-0.2L192.41,42.06z"></path>				<path id="XMLID_00000124125368334562683150000003563265920384178361_" class="st3" d="M177.76,36.63     c-1.3-1.46-2.64-2.89-4.04-4.29C133.97-7.4,69.54-7.4,29.8,32.34s-39.74,104.17,0,143.91c12.31,12.31,26.99,20.8,42.57,25.49     l0.94-3.83c-40.49-10.78-51.86-49.42-51.86-49.42c14.47,28.07,35.2,39.23,49.2,43.67c-39.94-17.85-49.51-58.57-49.51-58.57     c15.03,33.62,38.31,48.25,54.55,54.59l0.86-3.54c-8.11-4.18-15.71-9.66-22.51-16.45c-35.28-35.28-35.28-92.47,0-127.75     C88.01,6.46,142.28,5.2,177.76,36.63z M23.44,74.23c-2.25,0.17-4.12,1.81-4.57,4.02l-0.28,1.38l-0.11-1.4     c-0.17-2.25-1.81-4.12-4.02-4.57l-1.38-0.28l1.4-0.11c2.25-0.17,4.12-1.81,4.57-4.02l0.28-1.38l0.11,1.4     c0.17,2.25,1.81,4.12,4.02,4.57l1.38,0.28L23.44,74.23z M44.75,37.05c-1.23,0.09-2.26,0.99-2.5,2.2l-0.15,0.76l-0.06-0.77     c-0.09-1.23-0.99-2.26-2.2-2.5l-0.76-0.16l0.77-0.06c1.23-0.09,2.26-0.99,2.5-2.2l0.16-0.76l0.06,0.77     c0.09,1.23,0.99,2.26,2.2,2.5l0.76,0.16L44.75,37.05z"></path>				<path id="XMLID_00000003073256626041028000000003349375985527647877_" class="st2" d="M142.9,29.86     c-1.68-0.77-2.64-2.56-2.36-4.39l0.18-1.14l-0.48,1.05c-0.77,1.68-2.56,2.64-4.39,2.36l-1.14-0.18l1.05,0.48     c1.68,0.77,2.64,2.56,2.36,4.39l-0.18,1.14l0.48-1.05c0.77-1.68,2.56-2.64,4.39-2.36l1.14,0.18L142.9,29.86z"></path>				<path id="XMLID_00000149351021357276643090000010942430590919858080_" class="st2" d="M164.38,51.62     c-2.11-0.97-3.32-3.21-2.96-5.5l0.22-1.43l-0.6,1.31c-0.97,2.11-3.21,3.32-5.5,2.96l-1.43-0.22l1.31,0.6     c2.11,0.97,3.32,3.21,2.96,5.5l-0.22,1.43l0.6-1.31c0.97-2.11,3.21-3.32,5.5-2.96l1.43,0.22L164.38,51.62z"></path>				<path id="XMLID_00000090269203785331165860000013481285058992847252_" class="st2" d="M157.04,4.54     c-1.38-0.63-2.17-2.11-1.94-3.61L155.24,0l-0.39,0.86c-0.63,1.38-2.11,2.17-3.61,1.94l-0.94-0.14l0.86,0.39     c1.38,0.63,2.17,2.11,1.94,3.61l-0.14,0.94l0.39-0.86c0.63-1.38,2.11-2.17,3.61-1.94l0.94,0.14L157.04,4.54z"></path>			</g>		</g>		<g>			<path class="st1" d="M102.64,82.41h25.8l-3.46,15.32H99.09l-4.16,18.09H77.01l13.33-58.01h47.1l-3.46,15.32h-29.26L102.64,82.41z    "></path>			<path class="st1" d="M175.63,77.22c4.16,4.33,5.71,9.9,4.67,16.71c-1.1,6.81-4.36,12.38-9.78,16.71    c-5.43,4.33-11.57,6.49-18.44,6.49c-6.93,0-12.48-2.18-16.67-6.54c-4.18-4.36-5.73-9.91-4.63-16.67    c1.04-6.81,4.29-12.38,9.74-16.71c5.45-4.33,11.65-6.49,18.57-6.49C165.96,70.72,171.47,72.89,175.63,77.22z M160.26,100.12    c1.82-1.7,2.93-3.77,3.33-6.19c0.4-2.48-0.03-4.57-1.3-6.28c-1.27-1.7-3.06-2.55-5.37-2.55c-2.25,0-4.27,0.85-6.06,2.55    c-1.79,1.7-2.91,3.79-3.38,6.28c-0.4,2.42,0.03,4.49,1.3,6.19c1.27,1.7,3.06,2.55,5.37,2.55    C156.41,102.67,158.44,101.82,160.26,100.12z"></path>			<path class="st1" d="M225.5,71.68l-4.85,18.18h-2.6c-4.56,0-8.28,0.95-11.17,2.86c-2.89,1.9-4.88,5.25-5.97,10.04l-3.03,13.07    h-17.4l10.13-43.9h17.4l-1.99,8.48c4.5-6,9.96-9,16.36-9C223.42,71.42,224.46,71.5,225.5,71.68z"></path>			<path class="st1" d="M266.41,77.95c3.67,4.88,4.81,11.59,3.42,20.13h-30.3c0.46,3.98,2.57,5.97,6.32,5.97    c3.41,0,5.92-1.33,7.53-3.98l15.06,3.03c-2.42,4.62-5.73,8.11-9.91,10.48c-4.18,2.37-8.82,3.55-13.9,3.55    c-6.46,0-11.7-1.85-15.71-5.54c-4.01-3.69-6.02-8.66-6.02-14.89c0-7.39,2.67-13.58,8.01-18.57s11.76-7.49,19.26-7.49    C257.33,70.64,262.74,73.08,266.41,77.95z M254.67,88.99c-0.46-3.41-2.4-5.11-5.8-5.11c-3.12,0-5.63,1.7-7.53,5.11H254.67z"></path>			<path class="st1" d="M301.08,70.81l-0.26,1.13h10.13l-3.12,13.51h-10.13l-7.01,30.39h-17.4l7.01-30.39h-5.63l3.12-13.51h5.54    l0.61-2.51c1.27-5.19,3.9-9.36,7.88-12.51c3.98-3.15,8.72-4.72,14.2-4.72c3.64,0,6.64,0.55,9,1.65l-3.2,13.77    c-1.39-0.63-3.06-0.95-5.02-0.95C303.68,66.65,301.78,68.04,301.08,70.81z"></path>			<path class="st1" d="M349.31,71.68l-4.85,18.18h-2.6c-4.56,0-8.28,0.95-11.17,2.86c-2.89,1.9-4.88,5.25-5.97,10.04l-3.03,13.07    h-17.4l10.13-43.9h17.4l-1.99,8.48c4.5-6,9.96-9,16.36-9C347.23,71.42,348.27,71.5,349.31,71.68z"></path>			<path class="st1" d="M391.56,77.22c4.16,4.33,5.71,9.9,4.68,16.71c-1.1,6.81-4.36,12.38-9.78,16.71    c-5.43,4.33-11.57,6.49-18.44,6.49c-6.93,0-12.48-2.18-16.67-6.54c-4.18-4.36-5.73-9.91-4.63-16.67    c1.04-6.81,4.29-12.38,9.74-16.71c5.45-4.33,11.65-6.49,18.57-6.49C381.89,70.72,387.4,72.89,391.56,77.22z M376.19,100.12    c1.82-1.7,2.93-3.77,3.33-6.19c0.4-2.48-0.03-4.57-1.3-6.28c-1.27-1.7-3.06-2.55-5.37-2.55c-2.25,0-4.27,0.85-6.06,2.55    c-1.79,1.7-2.91,3.79-3.38,6.28c-0.4,2.42,0.03,4.49,1.3,6.19c1.27,1.7,3.06,2.55,5.37,2.55    C372.34,102.67,374.37,101.82,376.19,100.12z"></path>			<path class="st1" d="M447.32,75.74c2.54,3.41,3.17,7.82,1.9,13.25l-6.15,26.84h-17.4l5.37-23.64c0.4-1.85,0.23-3.33-0.52-4.46    s-1.96-1.69-3.64-1.69c-1.9,0-3.58,0.72-5.02,2.16c-1.44,1.44-2.45,3.41-3.03,5.89l-5.02,21.73h-17.4l10.13-43.9h17.4l-0.87,3.72    c3.69-3.35,7.79-5.02,12.29-5.02C440.8,70.64,444.78,72.34,447.32,75.74z"></path>			<path class="st1" d="M474.51,97.48c-0.35,1.5-0.26,2.67,0.26,3.51s1.41,1.26,2.68,1.26c1.67,0,3.92-0.52,6.75-1.56l0.87,13.33    c-3.81,2.08-8.74,3.12-14.81,3.12c-5.31,0-9.23-1.59-11.77-4.76c-2.54-3.17-3.17-7.42-1.9-12.73l3.29-14.2h-5.8l3.12-13.51h5.8    l2.86-12.38h17.4l-2.86,12.38h10.91l-3.12,13.51h-10.91L474.51,97.48z"></path>		</g>		<g>			<path class="st3" d="M95.75,157.38l-0.9-5.15H84.18l-3.31,5.15h-5.58l16.03-24.14h4.58l4.86,24.14H95.75z M92.54,139.18    l-5.51,8.61h7.03L92.54,139.18z"></path>			<path class="st3" d="M132.92,157.38h-17.36l5.55-24.14h4.9l-4.54,19.71h12.46L132.92,157.38z"></path>			<path class="st3" d="M166.17,157.38H148.8l5.55-24.14h4.9l-4.54,19.71h12.46L166.17,157.38z"></path>			<path class="st3" d="M226.61,135.04c1.97,1.56,3.06,3.64,3.28,6.23l-5.04,0.97c-0.22-1.54-0.8-2.76-1.76-3.66    c-0.96-0.9-2.29-1.35-4-1.35c-2.52,0-4.73,0.9-6.61,2.7c-1.88,1.8-2.83,3.99-2.83,6.56c0,1.99,0.6,3.64,1.8,4.94    s2.81,1.95,4.83,1.95c1.75,0,3.3-0.45,4.63-1.35c1.33-0.9,2.28-2.07,2.83-3.51l4.5,1.4c-0.86,2.45-2.33,4.4-4.4,5.84    s-4.63,2.16-7.71,2.16c-3.46,0-6.23-1.03-8.32-3.08c-2.09-2.05-3.13-4.73-3.13-8.02c0-3.87,1.39-7.19,4.18-9.96    c2.79-2.77,6.22-4.16,10.3-4.16C222.16,132.7,224.64,133.48,226.61,135.04z"></path>			<path class="st3" d="M260.26,157.38h-17.37l5.55-24.14h4.9l-4.54,19.71h12.47L260.26,157.38z"></path>			<path class="st3" d="M284.32,143.11h12.32l-1.01,4.36h-12.32l-1.26,5.48h13.44l-1.01,4.43h-18.34l5.55-24.14h18.27l-1.01,4.43    h-13.37L284.32,143.11z"></path>			<path class="st3" d="M329.53,157.38l-0.9-5.15h-10.66l-3.31,5.15h-5.58l16.03-24.14h4.58l4.86,24.14H329.53z M326.32,139.18    l-5.51,8.61h7.03L326.32,139.18z"></path>			<path class="st3" d="M371.64,157.38h-4.11l-9.51-16l-3.71,16h-4.9l5.55-24.14h4.11l9.44,16.32l3.78-16.32h4.9L371.64,157.38z"></path>			<path class="st3" d="M389.03,157.38l5.55-24.14h4.9l-5.55,24.14H389.03z"></path>			<path class="st3" d="M433.56,157.38h-4.11l-9.51-16l-3.71,16h-4.9l5.55-24.14h4.11l9.44,16.32l3.78-16.32h4.9L433.56,157.38z"></path>			<path class="st3" d="M478.01,143.29c-0.05,0.91-0.12,1.61-0.22,2.09c-0.72,3.91-2.33,6.98-4.83,9.2s-5.58,3.33-9.26,3.33    c-3.36,0-6.06-1-8.09-3.01s-3.04-4.65-3.04-7.94c0-3.91,1.45-7.27,4.36-10.07c2.91-2.8,6.44-4.2,10.59-4.2    c2.52,0,4.77,0.64,6.74,1.91s3.17,3.06,3.6,5.37l-4.9,1.04c-0.82-2.47-2.74-3.71-5.76-3.71c-2.64,0-4.91,0.89-6.79,2.67    c-1.89,1.78-2.83,3.95-2.83,6.52c0,2.02,0.61,3.66,1.84,4.94s2.83,1.91,4.83,1.91c1.8,0,3.41-0.52,4.83-1.55s2.41-2.38,2.99-4.04    h-7.96l1.04-4.47H478.01z"></path>		</g>	</g></g></svg>